<svg width="296" height="288" viewBox="0 0 296 288" fill="none" xmlns="http://www.w3.org/2000/svg">
<path d="M285.984 146.477C286.18 146.281 294.203 139.258 294.203 139.258L292.836 138.672C292.055 138.289 292.258 137.773 292.445 137.312C292.633 136.719 294.016 132.055 294.016 132.055C294.016 132.055 290.289 132.836 289.508 133.031C288.922 133.219 288.727 132.836 288.531 132.445C288.336 132.055 287.359 129.914 287.359 129.914C287.359 129.914 283.25 134.594 283.055 134.781C282.273 135.367 281.484 134.781 281.68 134C281.68 133.219 283.836 123.875 283.836 123.875C283.836 123.875 281.484 125.234 280.703 125.625C280.117 126.016 279.719 126.016 279.328 125.234C278.93 124.648 275.992 119 275.992 119C275.992 119 273.062 124.648 272.672 125.234C272.281 126.016 271.891 126.016 271.297 125.625C270.516 125.234 268.164 123.875 268.164 123.875C268.164 123.875 270.32 133.219 270.32 134C270.516 134.781 269.734 135.367 268.945 134.781C268.75 134.586 264.641 129.914 264.641 129.914C264.641 129.914 263.664 132.047 263.469 132.438C263.273 132.828 263.078 133.211 262.492 133.023C261.703 132.828 257.984 132.047 257.984 132.047C257.984 132.047 259.359 136.711 259.555 137.305C259.742 137.773 259.945 138.281 259.164 138.664L257.797 139.258C257.797 139.258 265.812 146.281 266.016 146.477C266.414 146.867 266.797 147.062 266.414 148.234C266.016 149.406 265.625 150.977 265.625 150.977C265.625 150.977 273.062 149.406 273.852 149.211C274.531 149.141 275.281 149.406 275.281 150.188C275.281 150.969 274.828 159 274.828 159H277.172C277.172 159 276.719 150.977 276.719 150.188C276.719 149.398 277.461 149.141 278.156 149.211C278.938 149.406 286.375 150.977 286.375 150.977C286.375 150.977 285.984 149.406 285.594 148.234C285.203 147.062 285.594 146.867 285.984 146.477Z" fill="#BECAF5"/>
<path d="M272.695 97.0247C261.501 66.3576 239.723 40.6958 211.286 24.662C182.848 8.62825 149.62 3.27645 117.586 9.57071C85.5525 15.865 56.8194 33.3915 36.5627 58.9931C16.3061 84.5947 5.8575 116.588 7.0992 149.211C8.34091 181.834 21.1913 212.941 43.3354 236.928C65.4796 260.916 95.4619 276.208 127.881 280.049C160.301 283.89 193.026 276.028 220.163 257.878C247.299 239.729 267.063 212.486 275.893 181.057" stroke="#BECAF5" stroke-width="14" stroke-linecap="round"/>
</svg>
