<?xml version="1.0" encoding="UTF-8"?>
<svg xmlns="http://www.w3.org/2000/svg" style="display:none">
  <!-- Play -->
  <symbol id="plyr-play" viewBox="0 0 16 16">
    <path d="M6.49012 2.10112C6.42469 2.04305 6.34771 2.00855 6.26761 2.00139C6.1875 1.99424 6.10737 2.01471 6.03597 2.06057C5.96458 2.10643 5.90469 2.1759 5.86286 2.26137C5.82103 2.34684 5.79888 2.44502 5.79883 2.54515V13.4549C5.79888 13.555 5.82103 13.6532 5.86286 13.7386C5.90469 13.8241 5.96458 13.8936 6.03597 13.9394C6.10737 13.9853 6.1875 14.0058 6.26761 13.9986C6.34771 13.9915 6.42469 13.9569 6.49012 13.8989L12.6154 8.44402C12.6722 8.39357 12.7184 8.32695 12.7503 8.24971C12.7822 8.17248 12.7988 8.08687 12.7988 8C12.7988 7.91313 12.7822 7.82752 12.7503 7.75028C12.7184 7.67305 12.6722 7.60643 12.6154 7.55597L6.49012 2.10112Z" fill="#FFF"/>
  </symbol>

  <!-- Pause -->
  <symbol id="plyr-pause" viewBox="0 0 16 16">
    <path d="M5 3.5C5.26522 3.5 5.51957 3.57902 5.70711 3.71967C5.89464 3.86032 6 4.05109 6 4.25V11.75C6 11.9489 5.89464 12.1397 5.70711 12.2803C5.51957 12.421 5.26522 12.5 5 12.5C4.73478 12.5 4.48043 12.421 4.29289 12.2803C4.10536 12.1397 4 11.9489 4 11.75V4.25C4 4.05109 4.10536 3.86032 4.29289 3.71967C4.48043 3.57902 4.73478 3.5 5 3.5ZM11 3.5C11.2652 3.5 11.5196 3.57902 11.7071 3.71967C11.8946 3.86032 12 4.05109 12 4.25V11.75C12 11.9489 11.8946 12.1397 11.7071 12.2803C11.5196 12.421 11.2652 12.5 11 12.5C10.7348 12.5 10.4804 12.421 10.2929 12.2803C10.1054 12.1397 10 11.9489 10 11.75V4.25C10 4.05109 10.1054 3.86032 10.2929 3.71967C10.4804 3.57902 10.7348 3.5 11 3.5Z" fill="#FFF"/>
  </symbol>
</svg>