<svg width="32" height="32" viewBox="0 0 32 32" fill="none" xmlns="http://www.w3.org/2000/svg">
<rect x="32" y="32" width="32" height="32" rx="16" transform="rotate(-180 32 32)" fill="white"/>
<path d="M22 16.75C22.4142 16.75 22.75 16.4142 22.75 16C22.75 15.5858 22.4142 15.25 22 15.25L22 16L22 16.75ZM9.46967 15.4697C9.17678 15.7626 9.17678 16.2374 9.46967 16.5303L14.2426 21.3033C14.5355 21.5962 15.0104 21.5962 15.3033 21.3033C15.5962 21.0104 15.5962 20.5355 15.3033 20.2426L11.0607 16L15.3033 11.7574C15.5962 11.4645 15.5962 10.9896 15.3033 10.6967C15.0104 10.4038 14.5355 10.4038 14.2426 10.6967L9.46967 15.4697ZM22 16L22 15.25L10 15.25L10 16L10 16.75L22 16.75L22 16Z" fill="#0F1D4E"/>
</svg>
