<svg width="378" height="74" viewBox="0 0 378 74" fill="none" xmlns="http://www.w3.org/2000/svg">
<path d="M341.913 74C334.468 74 328.04 72.4542 322.628 69.3627C317.251 66.2711 313.098 61.9462 310.168 56.388C307.273 50.8298 305.825 44.3671 305.825 37C305.825 29.6329 307.273 23.1702 310.168 17.612C313.098 12.0538 317.251 7.72889 322.628 4.63733C328.04 1.54578 334.468 0 341.913 0C349.358 0 355.769 1.54578 361.146 4.63733C366.557 7.72889 370.71 12.0538 373.606 17.612C376.535 23.1702 378 29.6329 378 37C378 44.3671 376.535 50.8298 373.606 56.388C370.71 61.9462 366.557 66.2711 361.146 69.3627C355.769 72.4542 349.358 74 341.913 74ZM341.913 61.3707C346.635 61.4364 350.564 60.4662 353.701 58.46C356.837 56.4538 359.181 53.6089 360.732 49.9253C362.317 46.2418 363.11 41.9333 363.11 37C363.11 32.0667 362.317 27.7911 360.732 24.1733C359.181 20.5556 356.837 17.7436 353.701 15.7373C350.564 13.7311 346.635 12.6951 341.913 12.6293C337.191 12.5636 333.261 13.5338 330.125 15.54C326.988 17.5462 324.627 20.3911 323.042 24.0747C321.491 27.7582 320.715 32.0667 320.715 37C320.715 41.9333 321.491 46.2089 323.042 49.8267C324.627 53.4444 326.988 56.2564 330.125 58.2627C333.261 60.2689 337.191 61.3049 341.913 61.3707Z" fill="#BECAF5" fill-opacity="0.12"/>
<path d="M266.185 72.5166V14.0072H242.713V1.47656H303.72V14.0072H280.248V72.5166H266.185Z" fill="#BECAF5" fill-opacity="0.12"/>
<path d="M209.738 74C204.224 74 199.243 73.0791 194.797 71.2374C190.385 69.3627 186.748 66.6987 183.888 63.2454C181.061 59.7591 179.269 55.6151 178.511 50.8134L193.194 48.7414C194.228 52.8196 196.365 55.9605 199.605 58.164C202.845 60.3676 206.533 61.4694 210.669 61.4694C212.978 61.4694 215.219 61.124 217.39 60.4334C219.562 59.7427 221.337 58.7231 222.715 57.3747C224.129 56.0262 224.835 54.3654 224.835 52.392C224.835 51.6685 224.714 50.9778 224.473 50.32C224.266 49.6294 223.904 48.988 223.387 48.396C222.87 47.804 222.129 47.2449 221.164 46.7187C220.234 46.1925 219.045 45.7156 217.597 45.288L198.261 39.8614C196.813 39.4667 195.124 38.9076 193.194 38.184C191.298 37.4605 189.454 36.4245 187.662 35.076C185.87 33.7276 184.37 31.9516 183.164 29.748C181.992 27.5116 181.406 24.6996 181.406 21.312C181.406 16.5431 182.664 12.58 185.18 9.42269C187.696 6.26535 191.057 3.91379 195.262 2.36802C199.467 0.822238 204.12 0.0657937 209.221 0.0986841C214.357 0.164461 218.941 1.00313 222.974 2.61468C227.007 4.22624 230.384 6.5778 233.107 9.66935C235.83 12.728 237.795 16.4774 239.001 20.9174L223.801 23.384C223.25 21.0818 222.233 19.1413 220.751 17.5627C219.269 15.984 217.494 14.7836 215.425 13.9614C213.392 13.1391 211.255 12.6951 209.015 12.6293C206.809 12.5636 204.723 12.8596 202.759 13.5174C200.828 14.1422 199.243 15.0631 198.002 16.28C196.796 17.4969 196.193 18.944 196.193 20.6214C196.193 22.1671 196.692 23.4334 197.692 24.42C198.691 25.3738 199.95 26.1467 201.466 26.7387C202.983 27.3307 204.534 27.824 206.119 28.2187L219.045 31.5734C220.975 32.0667 223.112 32.7245 225.456 33.5467C227.799 34.336 230.04 35.4542 232.177 36.9014C234.348 38.3156 236.123 40.1902 237.502 42.5254C238.915 44.8605 239.622 47.8205 239.622 51.4054C239.622 55.2205 238.777 58.5587 237.088 61.42C235.434 64.2485 233.193 66.6 230.367 68.4747C227.541 70.3165 224.335 71.6978 220.751 72.6187C217.201 73.5396 213.53 74 209.738 74Z" fill="#BECAF5" fill-opacity="0.12"/>
<path d="M154.118 72.5166V1.47656H168.181V72.5166H154.118Z" fill="#BECAF5" fill-opacity="0.12"/>
<path d="M79.2158 72.5166V1.47656H93.2786V30.6819H126.574V1.47656H140.637V72.5166H126.574V43.2126H93.2786V72.5166H79.2158Z" fill="#BECAF5" fill-opacity="0.12"/>
<path d="M36.0875 74C28.6425 74 22.2143 72.4542 16.8029 69.3627C11.426 66.2711 7.27265 61.9462 4.34291 56.388C1.44764 50.8298 0 44.3671 0 37C0 29.6329 1.44764 23.1702 4.34291 17.612C7.27265 12.0538 11.426 7.72889 16.8029 4.63733C22.2143 1.54578 28.6425 0 36.0875 0C44.6354 0 51.8047 2.02267 57.5952 6.068C63.4202 10.1133 67.5219 15.5893 69.9001 22.496L55.734 26.2453C54.3553 21.9369 52.0287 18.5987 48.7543 16.2307C45.4799 13.8298 41.2576 12.6293 36.0875 12.6293C31.3654 12.6293 27.4189 13.6324 24.2479 15.6387C21.1114 17.6449 18.7503 20.4733 17.1648 24.124C15.5793 27.7747 14.7866 32.0667 14.7866 37C14.7866 41.9333 15.5793 46.2253 17.1648 49.876C18.7503 53.5267 21.1114 56.3551 24.2479 58.3613C27.4189 60.3676 31.3654 61.3707 36.0875 61.3707C41.2576 61.3707 45.4799 60.1702 48.7543 57.7693C52.0287 55.3684 54.3553 52.0302 55.734 47.7547L69.9001 51.504C67.5219 58.4107 63.4202 63.8867 57.5952 67.932C51.8047 71.9773 44.6354 74 36.0875 74Z" fill="#BECAF5" fill-opacity="0.12"/>
</svg>
