<svg width="158" height="32" viewBox="0 0 158 32" fill="none" xmlns="http://www.w3.org/2000/svg">
<path d="M142.916 31.9999C139.804 31.9999 137.117 31.3315 134.856 29.9946C132.608 28.6577 130.872 26.7875 129.647 24.3839C128.437 21.9804 127.832 19.1857 127.832 16C127.832 12.8142 128.437 10.0195 129.647 7.61598C130.872 5.21243 132.608 3.34221 134.856 2.00533C137.117 0.668443 139.804 0 142.916 0C146.028 0 148.708 0.668443 150.956 2.00533C153.218 3.34221 154.954 5.21243 156.164 7.61598C157.388 10.0195 158.001 12.8142 158.001 16C158.001 19.1857 157.388 21.9804 156.164 24.3839C154.954 26.7875 153.218 28.6577 150.956 29.9946C148.708 31.3315 146.028 31.9999 142.916 31.9999ZM142.916 26.5386C144.89 26.567 146.533 26.1475 147.844 25.2799C149.155 24.4124 150.134 23.1822 150.783 21.5893C151.445 19.9964 151.777 18.1333 151.777 16C151.777 13.8666 151.445 12.0177 150.783 10.4533C150.134 8.88887 149.155 7.67287 147.844 6.80532C146.533 5.93776 144.89 5.48976 142.916 5.46132C140.943 5.43287 139.3 5.85243 137.989 6.71998C136.678 7.58754 135.691 8.81775 135.028 10.4106C134.38 12.0035 134.056 13.8666 134.056 16C134.056 18.1333 134.38 19.9822 135.028 21.5466C135.691 23.1111 136.678 24.3271 137.989 25.1946C139.3 26.0622 140.943 26.5102 142.916 26.5386Z" fill="white"/>
<path d="M111.264 31.3599V6.05867H101.453V0.640015H126.954V6.05867H117.143V31.3599H111.264Z" fill="white"/>
<path d="M87.6701 32.0001C85.365 32.0001 83.2831 31.6018 81.4246 30.8054C79.5805 29.9947 78.0605 28.8427 76.8647 27.3494C75.6833 25.8419 74.9341 24.0499 74.6172 21.9734L80.7547 21.0774C81.1869 22.841 82.0801 24.1992 83.4344 25.1521C84.7887 26.105 86.3303 26.5814 88.0591 26.5814C89.0244 26.5814 89.9609 26.4321 90.8685 26.1334C91.7762 25.8347 92.5182 25.3939 93.0944 24.8107C93.6851 24.2276 93.9805 23.5094 93.9805 22.6561C93.9805 22.3432 93.9301 22.0445 93.8292 21.7601C93.7428 21.4614 93.5915 21.1841 93.3754 20.9281C93.1593 20.6721 92.8495 20.4303 92.4461 20.2028C92.0571 19.9752 91.5601 19.769 90.955 19.5841L82.8725 17.2374C82.2674 17.0668 81.5615 16.825 80.7547 16.5121C79.9623 16.1992 79.1915 15.7512 78.4423 15.1681C77.6931 14.585 77.0664 13.817 76.5622 12.8641C76.0723 11.897 75.8274 10.681 75.8274 9.21611C75.8274 7.15389 76.3533 5.44012 77.405 4.07479C78.4567 2.70946 79.8614 1.69258 81.6191 1.02413C83.3768 0.35569 85.3218 0.02858 87.454 0.0428029C89.6007 0.0712469 91.5169 0.433913 93.2025 1.1308C94.8881 1.82769 96.3001 2.84457 97.4382 4.18146C98.5764 5.50412 99.3976 7.12545 99.9019 9.04545L93.5483 10.1121C93.3178 9.11656 92.8927 8.27745 92.2732 7.59478C91.6537 6.91212 90.9118 6.39301 90.0473 6.03746C89.1973 5.6819 88.304 5.4899 87.3676 5.46145C86.4455 5.43301 85.5739 5.56101 84.7527 5.84545C83.9459 6.11568 83.2831 6.5139 82.7645 7.04012C82.2602 7.56634 82.0081 8.19212 82.0081 8.91745C82.0081 9.58589 82.217 10.1334 82.6348 10.5601C83.0526 10.9726 83.5785 11.3068 84.2124 11.5628C84.8463 11.8188 85.4946 12.0321 86.1574 12.2028L91.5601 13.6534C92.3669 13.8668 93.2601 14.1512 94.2398 14.5068C95.2195 14.8481 96.156 15.3317 97.0492 15.9574C97.9569 16.569 98.6989 17.3796 99.2751 18.3894C99.8658 19.3992 100.161 20.6792 100.161 22.2294C100.161 23.8792 99.8082 25.3227 99.1023 26.5601C98.4107 27.7832 97.4742 28.8001 96.2929 29.6107C95.1115 30.4072 93.7716 31.0045 92.2732 31.4027C90.7893 31.8009 89.2549 32.0001 87.6701 32.0001Z" fill="white"/>
<path d="M64.4219 31.3599V0.640015H70.3V31.3599H64.4219Z" fill="white"/>
<path d="M33.1094 31.3599V0.640015H38.9875V13.2693H52.9049V0.640015H58.783V31.3599H52.9049V18.688H38.9875V31.3599H33.1094Z" fill="white"/>
<path d="M15.0844 31.9999C11.9724 31.9999 9.28545 31.3315 7.02352 29.9946C4.77599 28.6577 3.03992 26.7875 1.81531 24.3839C0.605103 21.9804 0 19.1857 0 16C0 12.8142 0.605103 10.0195 1.81531 7.61598C3.03992 5.21243 4.77599 3.34221 7.02352 2.00533C9.28545 0.668443 11.9724 0 15.0844 0C18.6573 0 21.654 0.874664 24.0745 2.62399C26.5093 4.37332 28.2237 6.74131 29.2178 9.72797L23.2965 11.3493C22.7202 9.4862 21.7477 8.04265 20.379 7.01865C19.0103 5.98043 17.2454 5.46132 15.0844 5.46132C13.1106 5.46132 11.4609 5.8951 10.1355 6.76265C8.82442 7.6302 7.83753 8.85331 7.17479 10.432C6.51206 12.0106 6.1807 13.8666 6.1807 16C6.1807 18.1333 6.51206 19.9893 7.17479 21.5679C7.83753 23.1466 8.82442 24.3697 10.1355 25.2373C11.4609 26.1048 13.1106 26.5386 15.0844 26.5386C17.2454 26.5386 19.0103 26.0195 20.379 24.9813C21.7477 23.9431 22.7202 22.4995 23.2965 20.6506L29.2178 22.2719C28.2237 25.2586 26.5093 27.6266 24.0745 29.3759C21.654 31.1253 18.6573 31.9999 15.0844 31.9999Z" fill="white"/>
</svg>
