<svg width="40" height="40" viewBox="0 0 40 40" fill="none" xmlns="http://www.w3.org/2000/svg">
<path d="M37.6 20.418C37.6 19.118 37.4833 17.868 37.2667 16.668H20V23.768H29.8667C29.4333 26.0513 28.1333 27.9846 26.1833 29.2846V33.9013H32.1333C35.6 30.7013 37.6 26.0013 37.6 20.418Z" fill="#4285F4"/>
<path d="M19.9995 38.3333C24.9495 38.3333 29.0995 36.7 32.1328 33.9L26.1828 29.2833C24.5495 30.3833 22.4661 31.05 19.9995 31.05C15.2328 31.05 11.1828 27.8333 9.73281 23.5H3.63281V28.2333C6.64948 34.2167 12.8328 38.3333 19.9995 38.3333Z" fill="#34A853"/>
<path d="M9.73268 23.4852C9.36602 22.3852 9.14935 21.2185 9.14935 20.0018C9.14935 18.7852 9.36602 17.6185 9.73268 16.5185V11.7852H3.63268C2.38268 14.2518 1.66602 17.0352 1.66602 20.0018C1.66602 22.9685 2.38268 25.7518 3.63268 28.2185L8.38268 24.5185L9.73268 23.4852Z" fill="#FBBC05"/>
<path d="M19.9995 8.96797C22.6995 8.96797 25.0995 9.9013 27.0161 11.7013L32.2661 6.4513C29.0828 3.48464 24.9495 1.66797 19.9995 1.66797C12.8328 1.66797 6.64948 5.78464 3.63281 11.7846L9.73281 16.518C11.1828 12.1846 15.2328 8.96797 19.9995 8.96797Z" fill="#EA4335"/>
</svg>
