<svg width="33" height="33" viewBox="0 0 33 33" fill="none" xmlns="http://www.w3.org/2000/svg">
<path d="M16.7539 0.0969238C13.5894 0.0969238 10.496 1.03531 7.86479 2.79341C5.2336 4.55151 3.18284 7.05037 1.97184 9.97399C0.760839 12.8976 0.443986 16.1147 1.06135 19.2184C1.67871 22.3221 3.20256 25.173 5.4402 27.4106C7.67784 29.6483 10.5288 31.1721 13.6325 31.7895C16.7362 32.4068 19.9532 32.09 22.8768 30.879C25.8005 29.668 28.2993 27.6172 30.0574 24.986C31.8155 22.3549 32.7539 19.2614 32.7539 16.0969C32.7498 11.8547 31.0627 7.78747 28.0631 4.78778C25.0634 1.78809 20.9961 0.101057 16.7539 0.0969238ZM17.9246 25.0725V26.3057C17.9246 26.6162 17.8013 26.914 17.5817 27.1335C17.3622 27.3531 17.0644 27.4764 16.7539 27.4764C16.4434 27.4764 16.1456 27.3531 15.9261 27.1335C15.7065 26.914 15.5832 26.6162 15.5832 26.3057V25.0725C14.5659 24.9205 13.613 24.4819 12.8359 23.8081C12.2811 23.3431 11.8243 22.7724 11.4921 22.1292C11.1598 21.4861 10.9586 20.7833 10.9003 20.0618C10.8805 19.8312 10.9296 19.5998 11.0412 19.3971C11.1529 19.1943 11.3222 19.0292 11.5277 18.9226C11.7331 18.8161 11.9656 18.7728 12.1957 18.7983C12.4257 18.8238 12.6431 18.9169 12.8203 19.0659C13.0592 19.2648 13.2106 19.5495 13.2417 19.8589C13.2716 20.2764 13.3851 20.6836 13.5755 21.0563C13.7659 21.4291 14.0293 21.7597 14.35 22.0286C14.995 22.58 15.8288 22.8598 16.6759 22.8091C19.111 22.8091 20.2661 21.8725 20.2661 19.9681C20.2661 18.7037 19.1578 17.3457 16.7539 17.3457C11.6651 17.3457 10.9003 14.2237 10.9003 12.4286C10.9419 11.3092 11.3266 10.2296 12.0023 9.33608C12.678 8.44259 13.612 7.7784 14.6778 7.43351C14.9744 7.34193 15.2762 7.27429 15.5832 7.23058V6.01302C15.5832 5.70252 15.7065 5.40474 15.9261 5.18519C16.1456 4.96563 16.4434 4.84229 16.7539 4.84229C17.0644 4.84229 17.3622 4.96563 17.5817 5.18519C17.8013 5.40474 17.9246 5.70252 17.9246 6.01302V7.27741C19.1501 7.4818 20.2737 8.08545 21.1206 8.99446C21.9675 9.90348 22.4903 11.0669 22.6076 12.3038C22.6204 12.6023 22.5185 12.8946 22.3229 13.1205C22.1272 13.3464 21.8526 13.4889 21.5552 13.5189C21.2578 13.5488 20.9602 13.4639 20.7235 13.2815C20.4867 13.0991 20.3287 12.8331 20.2817 12.5379C20.1949 11.6907 19.7879 10.9087 19.1438 10.3517C18.4997 9.7946 17.6672 9.50456 16.8163 9.54082H16.5354C16.1551 9.53782 15.7765 9.59041 15.4115 9.69692C15.0121 9.8272 14.6431 10.0367 14.3266 10.313C14.0101 10.5893 13.7526 10.9266 13.5695 11.3047C13.3818 11.6789 13.2754 12.0885 13.2573 12.5067C13.2573 13.7867 13.6788 15.0355 16.7695 15.0355C20.6095 15.0355 22.6232 17.533 22.6232 19.9994C22.644 20.6421 22.5369 21.2825 22.3081 21.8835C22.0793 22.4845 21.7334 23.034 21.2904 23.5002C20.8475 23.9664 20.3163 24.3399 19.7278 24.5991C19.1393 24.8583 18.5052 24.998 17.8622 25.0101L17.9246 25.0725Z" fill="#0F1D4E"/>
</svg>
