<svg width="16" height="16" viewBox="0 0 16 16" fill="none" xmlns="http://www.w3.org/2000/svg">
<circle cx="8" cy="8" r="7.5" stroke="currentColor"/>
<path d="M6.9233 10.6216C6.57449 10.6216 6.27739 10.5479 6.03202 10.4005C5.78905 10.2506 5.59179 10.05 5.44023 9.79861C5.28868 9.54723 5.17681 9.26564 5.10464 8.95383C5.03488 8.64202 5 8.32417 5 8.00027C5 7.67396 5.03608 7.3549 5.10825 7.04309C5.18283 6.73129 5.2971 6.4509 5.45106 6.20194C5.60502 5.95056 5.80348 5.75114 6.04645 5.6037C6.29182 5.45384 6.58411 5.37891 6.9233 5.37891C7.19273 5.37891 7.42006 5.42483 7.6053 5.51668C7.79294 5.60612 7.9469 5.72335 8.06718 5.86837C8.18746 6.01098 8.28248 6.16085 8.35225 6.31796L7.74603 6.63339C7.65461 6.45694 7.54636 6.31071 7.42127 6.19468C7.29858 6.07625 7.13259 6.01703 6.9233 6.01703C6.69958 6.01703 6.50953 6.07625 6.35317 6.19468C6.19921 6.31312 6.07411 6.47024 5.97789 6.66602C5.88407 6.86181 5.81551 7.07693 5.77221 7.3114C5.72891 7.54344 5.70726 7.77307 5.70726 8.00027C5.70726 8.24682 5.73131 8.48853 5.77942 8.72541C5.82754 8.95987 5.89971 9.17258 5.99593 9.36353C6.09456 9.55207 6.22086 9.70314 6.37482 9.81674C6.52878 9.92793 6.71161 9.98352 6.9233 9.98352C7.13981 9.98352 7.31542 9.9231 7.45014 9.80224C7.58485 9.68138 7.69671 9.52548 7.78572 9.33453L8.39916 9.5702C8.32218 9.75873 8.21753 9.93276 8.08522 10.0923C7.95532 10.2518 7.79414 10.3799 7.60169 10.4766C7.40924 10.5733 7.18311 10.6216 6.9233 10.6216Z" fill="currentColor"/>
<path d="M9.85264 11V10.2361H10.4311V11H9.85264ZM9.85264 5.76714V5H10.4311V5.76714H9.85264ZM10.1709 10.4483C9.89416 10.4483 9.64692 10.3896 9.42921 10.272C9.2115 10.1545 9.03253 9.98803 8.89231 9.77258C8.75394 9.55495 8.66353 9.29815 8.62109 9.00218L9.19397 8.89445C9.24932 9.17301 9.3674 9.39499 9.54822 9.56039C9.72903 9.72361 9.94582 9.80522 10.1986 9.80522C10.4495 9.80522 10.6534 9.73449 10.8102 9.59304C10.9689 9.45158 11.0482 9.27095 11.0482 9.05114C11.0482 8.89445 11.0076 8.76714 10.9264 8.66921C10.8471 8.57127 10.717 8.48857 10.5362 8.42111L9.6008 8.08161C9.04729 7.87922 8.77054 7.48749 8.77054 6.90642C8.77054 6.63221 8.82589 6.39391 8.93659 6.19151C9.04914 5.98912 9.20689 5.83243 9.40984 5.72144C9.61279 5.61045 9.84988 5.55495 10.1211 5.55495C10.3812 5.5593 10.6119 5.61589 10.813 5.7247C11.0159 5.83351 11.1838 5.99021 11.3167 6.19478C11.4514 6.39935 11.5445 6.64527 11.5962 6.93254L11.0067 7.05658C10.9809 6.88901 10.9264 6.74102 10.8434 6.61262C10.7622 6.48422 10.6589 6.38411 10.5335 6.3123C10.4098 6.24048 10.2705 6.20348 10.1156 6.20131C9.9698 6.19695 9.83881 6.22416 9.72257 6.28292C9.60818 6.3395 9.51685 6.42002 9.44858 6.52448C9.38216 6.62677 9.34895 6.7432 9.34895 6.87378C9.34895 7.01741 9.396 7.13928 9.4901 7.23939C9.58419 7.3395 9.73272 7.42546 9.93567 7.49728L10.6691 7.74864C11.0049 7.86616 11.2475 8.02394 11.3969 8.22198C11.5464 8.42002 11.6211 8.68335 11.6211 9.01197C11.6211 9.29924 11.5602 9.5506 11.4384 9.76605C11.3185 9.97933 11.1497 10.1469 10.932 10.2688C10.7143 10.3885 10.4606 10.4483 10.1709 10.4483Z" fill="currentColor"/>
</svg>