<svg width="16" height="16" viewBox="0 0 16 16" fill="none" xmlns="http://www.w3.org/2000/svg">
<path d="M11.5833 2.84299C10.5719 1.80407 9.43347 0.868437 8.18917 0.0533615C8.1332 0.0186263 8.06659 0 7.99833 0C7.93008 0 7.86346 0.0186263 7.8075 0.0533615C6.56436 0.868609 5.42709 1.80424 4.41667 2.84299C2.18083 5.12669 1 7.52446 1 9.77779C1 11.428 1.7375 13.0107 3.05025 14.1776C4.36301 15.3444 6.14348 16 8 16C9.85652 16 11.637 15.3444 12.9497 14.1776C14.2625 13.0107 15 11.428 15 9.77779C15 7.52446 13.8192 5.12669 11.5833 2.84299ZM8 15.4074C6.32084 15.4058 4.71095 14.8122 3.52361 13.7568C2.33626 12.7014 1.66843 11.2704 1.66667 9.77779C1.66667 7.11853 3.42917 4.75558 4.90833 3.2415C5.83982 2.29383 6.87553 1.43128 8 0.666694C9.12464 1.43221 10.1603 2.29576 11.0917 3.24447C12.5708 4.75558 14.3333 7.11853 14.3333 9.77779C14.3316 11.2704 13.6637 12.7014 12.4764 13.7568C11.289 14.8122 9.67916 15.4058 8 15.4074ZM12.3283 10.42C12.168 11.218 11.7363 11.9531 11.0914 12.5262C10.4465 13.0993 9.61941 13.4828 8.72167 13.6252C8.70352 13.6281 8.68511 13.6296 8.66667 13.6296C8.58347 13.6291 8.50351 13.6009 8.4425 13.5506C8.38149 13.5003 8.34384 13.4316 8.33694 13.3579C8.33005 13.2842 8.35442 13.2109 8.40525 13.1523C8.45608 13.0938 8.52971 13.0542 8.61167 13.0415C10.1267 12.8148 11.4142 11.6704 11.6717 10.3208C11.6896 10.246 11.7393 10.1802 11.8105 10.1373C11.8817 10.0944 11.9688 10.0776 12.0536 10.0904C12.1384 10.1032 12.2143 10.1447 12.2655 10.2061C12.3167 10.2675 12.3392 10.3442 12.3283 10.42Z" fill="currentColor"/>
</svg>
