<svg width="16" height="16" viewBox="0 0 16 16" fill="none" xmlns="http://www.w3.org/2000/svg">
<path d="M6.49012 2.10112C6.42469 2.04305 6.34771 2.00855 6.26761 2.00139C6.1875 1.99424 6.10737 2.01471 6.03597 2.06057C5.96458 2.10643 5.90469 2.1759 5.86286 2.26137C5.82103 2.34684 5.79888 2.44502 5.79883 2.54515V13.4549C5.79888 13.555 5.82103 13.6532 5.86286 13.7386C5.90469 13.8241 5.96458 13.8936 6.03597 13.9394C6.10737 13.9853 6.1875 14.0058 6.26761 13.9986C6.34771 13.9915 6.42469 13.9569 6.49012 13.8989L12.6154 8.44402C12.6722 8.39357 12.7184 8.32695 12.7503 8.24971C12.7822 8.17248 12.7988 8.08687 12.7988 8C12.7988 7.91313 12.7822 7.82752 12.7503 7.75028C12.7184 7.67305 12.6722 7.60643 12.6154 7.55597L6.49012 2.10112Z" fill="#0F1D4E"/>
</svg>
