<svg width="16" height="16" viewBox="0 0 16 16" fill="none" xmlns="http://www.w3.org/2000/svg">
<path d="M6.51855 1.18359C6.87511 -0.394677 9.12489 -0.394677 9.48145 1.18359C9.71251 2.20651 10.8858 2.69272 11.7725 2.13281C13.1406 1.26886 14.7311 2.85938 13.8672 4.22754L13.7744 4.39648C13.37 5.25697 13.8573 6.30191 14.8164 6.51855C16.3947 6.87511 16.3947 9.12489 14.8164 9.48145L14.6309 9.53516C13.7367 9.85777 13.3423 10.9412 13.8672 11.7725C14.7042 13.0979 13.2378 14.6316 11.9014 13.9404L11.7725 13.8672C10.8858 13.3073 9.71251 13.7935 9.48145 14.8164L9.44238 14.96C9.00059 16.3468 6.99941 16.3468 6.55762 14.96L6.51855 14.8164C6.28749 13.7935 5.11424 13.3073 4.22754 13.8672L4.09863 13.9404C2.76225 14.6316 1.2958 13.0979 2.13281 11.7725C2.65772 10.9412 2.26334 9.85777 1.36914 9.53516L1.18359 9.48145C-0.394677 9.12489 -0.394677 6.87511 1.18359 6.51855C2.14269 6.30191 2.63003 5.25697 2.22559 4.39648L2.13281 4.22754C1.26886 2.85938 2.85938 1.26886 4.22754 2.13281C5.11424 2.69272 6.28749 2.20651 6.51855 1.18359ZM8.50586 1.4043C8.38416 0.86551 7.61584 0.865511 7.49414 1.4043C7.11075 3.10078 5.164 3.90719 3.69336 2.97852C3.22636 2.68371 2.68371 3.22636 2.97852 3.69336C3.90719 5.164 3.10078 7.11075 1.4043 7.49414C0.86551 7.61584 0.86551 8.38416 1.4043 8.50586C3.10078 8.88925 3.90719 10.836 2.97852 12.3066C2.68371 12.7736 3.22636 13.3163 3.69336 13.0215C5.16401 12.0928 7.11075 12.8992 7.49414 14.5957C7.61584 15.1345 8.38416 15.1345 8.50586 14.5957C8.88925 12.8992 10.836 12.0928 12.3066 13.0215C12.7736 13.3163 13.3163 12.7736 13.0215 12.3066C12.0928 10.836 12.8992 8.88925 14.5957 8.50586C15.1345 8.38416 15.1345 7.61584 14.5957 7.49414C12.8992 7.11075 12.0928 5.16401 13.0215 3.69336C13.3163 3.22636 12.7736 2.68371 12.3066 2.97852C10.836 3.90719 8.88925 3.10078 8.50586 1.4043ZM10.5752 6C10.6874 6.001 10.7946 6.04316 10.874 6.11719C10.9535 6.19144 10.999 6.29245 11 6.39746C11.0009 6.50224 10.9578 6.6033 10.8799 6.67871H10.874L7.44238 9.88281C7.36206 9.95776 7.25319 9.99989 7.13965 10C7.02593 10 6.91637 9.95789 6.83594 9.88281L5.12012 8.28027C5.04223 8.20478 4.99902 8.10386 5 7.99902C5.00098 7.89402 5.04647 7.79398 5.12598 7.71973C5.20541 7.64555 5.31248 7.60256 5.4248 7.60156C5.53726 7.60065 5.64567 7.64189 5.72656 7.71484L7.14258 9.03613L10.2734 6.1123C10.3543 6.03948 10.4628 5.99909 10.5752 6Z" fill="currentColor"/>
</svg>
