<svg width="16" height="16" viewBox="0 0 16 16" fill="none" xmlns="http://www.w3.org/2000/svg">
<path d="M4.66797 8L8.0013 10.3333L11.3346 8" stroke="currentColor" stroke-width="1.3" stroke-linecap="round" stroke-linejoin="round"/>
<path d="M1.33398 13.3334V6.08803C1.33398 5.85779 1.3936 5.63146 1.50705 5.4311C1.62049 5.23073 1.78388 5.06316 1.98132 4.9447L7.31465 1.7447C7.52187 1.62037 7.75899 1.55469 8.00065 1.55469C8.24231 1.55469 8.47943 1.62037 8.68665 1.7447L14.02 4.9447C14.2174 5.06316 14.3808 5.23073 14.4943 5.4311C14.6077 5.63146 14.6673 5.85779 14.6673 6.08803V13.3334C14.6673 13.687 14.5268 14.0261 14.2768 14.2762C14.0267 14.5262 13.6876 14.6667 13.334 14.6667H2.66732C2.3137 14.6667 1.97456 14.5262 1.72451 14.2762C1.47446 14.0261 1.33398 13.687 1.33398 13.3334Z" stroke="currentColor" stroke-width="1.3"/>
</svg>
