<svg width="16" height="16" viewBox="0 0 16 16" fill="none" xmlns="http://www.w3.org/2000/svg">
<path fill-rule="evenodd" clip-rule="evenodd" d="M6.8753 0.255028C7.2265 0.0871399 7.61084 0 8.00011 0C8.38938 0 8.77372 0.0871399 9.12492 0.255028C9.43452 0.403029 9.71693 0.644632 10.1097 0.979035L10.1721 1.03184C10.3625 1.19424 10.4225 1.24384 10.4833 1.28464C10.6377 1.38864 10.8113 1.45984 10.9929 1.49584C11.0649 1.51024 11.1425 1.51744 11.3921 1.53664L11.4729 1.54304C11.9866 1.58384 12.3578 1.61344 12.681 1.72704C13.0481 1.85714 13.3816 2.06759 13.657 2.34302C13.9324 2.61845 14.1429 2.95191 14.273 3.31906C14.3866 3.64226 14.4154 4.01346 14.457 4.52707L14.4634 4.60787C14.4826 4.85747 14.4898 4.93587 14.5042 5.00707C14.5402 5.18948 14.6122 5.36308 14.7154 5.51748C14.7562 5.57748 14.8058 5.63748 14.9682 5.82788L15.021 5.89028C15.3562 6.28229 15.597 6.56549 15.745 6.87429C16.085 7.5863 16.085 8.41351 15.745 9.12471C15.5978 9.43432 15.3562 9.71672 15.021 10.1095L14.9682 10.1719C14.8788 10.2714 14.7944 10.3752 14.7154 10.4831C14.6114 10.6375 14.5402 10.8111 14.5042 10.9927C14.4898 11.0647 14.4834 11.1423 14.4634 11.3919L14.4562 11.4727C14.4162 11.9863 14.3866 12.3575 14.2722 12.6807C14.1427 13.0481 13.9325 13.3818 13.6572 13.6573C13.3818 13.9328 13.0482 14.1431 12.681 14.2728C12.3578 14.3864 11.9866 14.4152 11.4729 14.4568L11.3921 14.4632C11.2585 14.4701 11.1252 14.4837 10.9929 14.504C10.8111 14.5409 10.638 14.6126 10.4833 14.7152C10.3752 14.7942 10.271 14.8785 10.1713 14.968L10.1097 15.0208C9.71773 15.356 9.43452 15.5968 9.12572 15.7448C8.77441 15.9128 8.38993 16 8.00051 16C7.61109 16 7.22661 15.9128 6.8753 15.7448C6.56569 15.5976 6.28329 15.356 5.89048 15.0208L5.82808 14.968C5.7289 14.8786 5.6253 14.7942 5.51768 14.7152C5.36277 14.6125 5.18944 14.5408 5.00727 14.504C4.87497 14.4837 4.74174 14.4701 4.60807 14.4632L4.52727 14.456C4.01366 14.416 3.64246 14.3864 3.31925 14.272C2.95191 14.1425 2.61824 13.9323 2.34275 13.6569C2.06725 13.3816 1.85693 13.048 1.72724 12.6807C1.61364 12.3575 1.58403 11.9863 1.54323 11.4727L1.53683 11.3919C1.52992 11.2583 1.5163 11.125 1.49603 10.9927C1.45913 10.8108 1.38741 10.6378 1.28483 10.4831C1.20584 10.375 1.12147 10.2708 1.03203 10.1711L0.979228 10.1095C0.644824 9.71752 0.403221 9.43432 0.25522 9.12551C0.0872071 8.7742 0 8.38972 0 8.0003C0 7.61088 0.0872071 7.22641 0.25522 6.87509C0.403221 6.56549 0.644824 6.28309 0.979228 5.89028L1.03203 5.82788C1.12142 5.7287 1.2058 5.6251 1.28483 5.51748C1.38883 5.36308 1.46003 5.18948 1.49603 5.00707C1.51043 4.93507 1.51763 4.85747 1.53683 4.60787L1.54323 4.52707C1.58403 4.01346 1.61364 3.64226 1.72724 3.31906C1.85683 2.95163 2.06711 2.61791 2.3426 2.34241C2.6181 2.06691 2.95183 1.85664 3.31925 1.72704C3.64246 1.61344 4.01366 1.58384 4.52727 1.54304L4.60807 1.53664C4.74174 1.52973 4.87497 1.51611 5.00727 1.49584C5.18968 1.45984 5.36328 1.38784 5.51768 1.28464C5.57768 1.24384 5.63768 1.19424 5.82808 1.03184L5.89048 0.979035C6.28249 0.644632 6.56649 0.403029 6.8753 0.255028ZM8.60491 1.34144C8.41575 1.25131 8.20885 1.20454 7.99931 1.20454C7.78977 1.20454 7.58287 1.25131 7.3937 1.34144C7.2457 1.41184 7.0897 1.53904 6.60889 1.94784L6.58489 1.96784C6.42729 2.10225 6.31289 2.20065 6.18729 2.28465C5.90008 2.47665 5.57848 2.61025 5.23928 2.67665C5.09127 2.70625 4.94087 2.71825 4.73367 2.73505L4.70327 2.73745C4.07366 2.78785 3.87446 2.80865 3.71926 2.86305C3.31925 3.00466 3.00405 3.31906 2.86325 3.71986C2.80725 3.87506 2.78725 4.07427 2.73685 4.70387L2.73445 4.73427C2.71845 4.94147 2.70565 5.09188 2.67685 5.23988C2.60965 5.57908 2.47685 5.90068 2.28484 6.18789C2.20004 6.31349 2.10164 6.42789 1.96724 6.58629L1.94724 6.60949C1.53843 7.0895 1.41123 7.2463 1.34083 7.3935C1.25058 7.58277 1.20375 7.78981 1.20375 7.9995C1.20375 8.20919 1.25058 8.41624 1.34083 8.60551C1.41123 8.75351 1.53843 8.90951 1.94724 9.39032L1.96724 9.41432C2.10164 9.57192 2.20004 9.68632 2.28404 9.81192C2.47605 10.0991 2.60965 10.4207 2.67605 10.7599C2.70565 10.9079 2.71765 11.0583 2.73445 11.2655L2.73685 11.2959C2.78725 11.9255 2.80805 12.1247 2.86245 12.2799C3.00405 12.68 3.31845 12.9952 3.71926 13.136C3.87446 13.192 4.07366 13.212 4.70327 13.2624L4.73367 13.2648C4.94087 13.2808 5.09127 13.2936 5.23928 13.3224C5.57848 13.3896 5.90008 13.5224 6.18729 13.7144C6.31289 13.7992 6.42729 13.8976 6.58569 14.032L6.60889 14.052C7.0889 14.4608 7.2457 14.588 7.3929 14.6584C7.58218 14.7486 7.78922 14.7955 7.99891 14.7955C8.2086 14.7955 8.41564 14.7486 8.60491 14.6584C8.75292 14.588 8.90892 14.4608 9.38972 14.052L9.41372 14.032C9.57133 13.8976 9.68573 13.7992 9.81133 13.7152C10.0985 13.5232 10.4201 13.3896 10.7593 13.3232C10.9267 13.2948 11.0955 13.2753 11.2649 13.2648L11.2953 13.2624C11.925 13.212 12.1242 13.1912 12.2794 13.1368C12.6794 12.9952 12.9946 12.6808 13.1354 12.2799C13.1914 12.1247 13.2114 11.9247 13.2618 11.2959L13.2642 11.2655C13.2744 11.0958 13.2936 10.9268 13.3218 10.7591C13.389 10.4207 13.5218 10.0991 13.7138 9.81192C13.7986 9.68632 13.897 9.57192 14.0314 9.41352L14.0514 9.39032C14.4602 8.91031 14.5874 8.75351 14.6578 8.60631C14.748 8.41704 14.7949 8.20999 14.7949 8.0003C14.7949 7.79061 14.748 7.58357 14.6578 7.3943C14.5874 7.2463 14.4602 7.0903 14.0514 6.60949L14.0314 6.58549C13.897 6.42789 13.7986 6.31349 13.7146 6.18789C13.5232 5.90055 13.39 5.57847 13.3226 5.23988C13.2942 5.07249 13.2747 4.90372 13.2642 4.73427L13.2618 4.70387C13.2114 4.07427 13.1906 3.87506 13.1362 3.71986C12.9946 3.31986 12.6802 3.00466 12.2794 2.86385C12.1242 2.80785 11.9242 2.78785 11.2953 2.73745L11.2649 2.73505C11.0952 2.72483 10.9262 2.70561 10.7585 2.67745C10.4202 2.60993 10.0984 2.47675 9.81133 2.28545C9.68573 2.20065 9.57133 2.10225 9.41292 1.96784L9.38972 1.94784C8.90972 1.53904 8.75292 1.41184 8.60571 1.34144" fill="#0F1D4E"/>
<path fill-rule="evenodd" clip-rule="evenodd" d="M10.3612 5.63859C10.4079 5.6852 10.4449 5.74055 10.4701 5.80146C10.4953 5.86237 10.5083 5.92765 10.5083 5.99359C10.5083 6.05952 10.4953 6.1248 10.4701 6.18571C10.4449 6.24663 10.4079 6.30197 10.3612 6.34859L6.34724 10.3619C6.25233 10.4518 6.12607 10.5012 5.99533 10.4994C5.8646 10.4977 5.7397 10.445 5.6472 10.3526C5.5547 10.2602 5.50191 10.1354 5.50005 10.0046C5.49819 9.87389 5.54741 9.74759 5.63724 9.65259L9.65124 5.63925C9.69786 5.59263 9.7532 5.55564 9.81412 5.53041C9.87503 5.50518 9.94031 5.49219 10.0062 5.49219C10.0722 5.49219 10.1375 5.50518 10.1984 5.53041C10.2593 5.55564 10.3146 5.59263 10.3612 5.63925" fill="#0F1D4E"/>
<path d="M10.3412 9.67323C10.344 9.76286 10.3288 9.85215 10.2965 9.93579C10.2641 10.0194 10.2153 10.0957 10.1529 10.1601C10.0905 10.2245 10.0158 10.2757 9.93322 10.3107C9.85064 10.3457 9.76188 10.3637 9.6722 10.3637C9.58253 10.3637 9.49377 10.3457 9.41119 10.3107C9.32861 10.2757 9.25391 10.2245 9.1915 10.1601C9.1291 10.0957 9.08028 10.0194 9.04793 9.93579C9.01558 9.85215 9.00037 9.76286 9.0032 9.67323C9.00869 9.49946 9.08158 9.33464 9.20644 9.21365C9.3313 9.09267 9.49834 9.02502 9.6722 9.02502C9.84606 9.02502 10.0131 9.09267 10.138 9.21365C10.2628 9.33464 10.3357 9.49946 10.3412 9.67323ZM6.99654 6.3279C6.99937 6.41753 6.98416 6.50682 6.95181 6.59046C6.91946 6.67409 6.87064 6.75038 6.80824 6.81478C6.74583 6.87919 6.67113 6.93039 6.58855 6.96536C6.50597 7.00033 6.41721 7.01835 6.32754 7.01835C6.23786 7.01835 6.1491 7.00033 6.06652 6.96536C5.98395 6.93039 5.90924 6.87919 5.84684 6.81478C5.78443 6.75038 5.73561 6.67409 5.70326 6.59046C5.67092 6.50682 5.65571 6.41753 5.65854 6.3279C5.66402 6.15412 5.73691 5.9893 5.86177 5.86832C5.98664 5.74734 6.15368 5.67969 6.32754 5.67969C6.5014 5.67969 6.66844 5.74734 6.7933 5.86832C6.91816 5.9893 6.99105 6.15412 6.99654 6.3279Z" fill="#0F1D4E"/>
</svg>
