<svg width="16" height="16" viewBox="0 0 16 16" fill="none" xmlns="http://www.w3.org/2000/svg">
<path d="M11.8395 6.0181C11.9436 5.9048 12.0013 5.75305 12 5.59553C11.9987 5.43802 11.9385 5.28734 11.8325 5.17596C11.7265 5.06457 11.583 5.00139 11.4331 5.00002C11.2832 4.99865 11.1387 5.05921 11.0309 5.16864L6.85628 9.55412L4.96914 7.57164C4.86129 7.46221 4.71683 7.40166 4.56689 7.40303C4.41695 7.4044 4.27352 7.46758 4.16749 7.57896C4.06147 7.69034 4.00132 7.84102 4.00002 7.99854C3.99872 8.15605 4.05636 8.3078 4.16053 8.4211L6.44797 10.8241C6.55521 10.9367 6.70064 11 6.85228 11C7.00391 11 7.14934 10.9367 7.25658 10.8241L11.8315 6.0181H11.8395Z" fill="#0F1D4E"/>
</svg>
