<svg width="16" height="16" viewBox="0 0 16 16" fill="none" xmlns="http://www.w3.org/2000/svg">
<path d="M8.52667 13.9993L2 7.47266V8.80599C2 9.15932 2.14 9.49932 2.39333 9.74599L7.58667 14.9393C8.10667 15.4593 8.95333 15.4593 9.47333 14.9393L13.6133 10.7993C14.1333 10.2793 14.1333 9.43266 13.6133 8.91266L8.52667 13.9993Z" fill="#0F1D4E"/>
<path d="M7.58667 11.6067C8.10667 12.1267 8.95333 12.1267 9.47333 11.6067L13.6133 7.46667C14.1333 6.94667 14.1333 6.1 13.6133 5.58L8.42 0.386667C8.16676 0.139535 7.82717 0.000830218 7.47333 0L3.33333 0C2.6 0 2 0.6 2 1.33333V5.47333C2 5.82667 2.14 6.16667 2.39333 6.41333L7.58667 11.6067ZM4.83333 2C5.05435 2 5.26631 2.0878 5.42259 2.24408C5.57887 2.40036 5.66667 2.61232 5.66667 2.83333C5.66667 3.05435 5.57887 3.26631 5.42259 3.42259C5.26631 3.57887 5.05435 3.66667 4.83333 3.66667C4.61232 3.66667 4.40036 3.57887 4.24408 3.42259C4.0878 3.26631 4 3.05435 4 2.83333C4 2.61232 4.0878 2.40036 4.24408 2.24408C4.40036 2.0878 4.61232 2 4.83333 2Z" fill="#0F1D4E"/>
</svg>
