<svg width="16" height="16" viewBox="0 0 16 16" fill="none" xmlns="http://www.w3.org/2000/svg">
<path d="M5 3.5C5.26522 3.5 5.51957 3.57902 5.70711 3.71967C5.89464 3.86032 6 4.05109 6 4.25V11.75C6 11.9489 5.89464 12.1397 5.70711 12.2803C5.51957 12.421 5.26522 12.5 5 12.5C4.73478 12.5 4.48043 12.421 4.29289 12.2803C4.10536 12.1397 4 11.9489 4 11.75V4.25C4 4.05109 4.10536 3.86032 4.29289 3.71967C4.48043 3.57902 4.73478 3.5 5 3.5ZM11 3.5C11.2652 3.5 11.5196 3.57902 11.7071 3.71967C11.8946 3.86032 12 4.05109 12 4.25V11.75C12 11.9489 11.8946 12.1397 11.7071 12.2803C11.5196 12.421 11.2652 12.5 11 12.5C10.7348 12.5 10.4804 12.421 10.2929 12.2803C10.1054 12.1397 10 11.9489 10 11.75V4.25C10 4.05109 10.1054 3.86032 10.2929 3.71967C10.4804 3.57902 10.7348 3.5 11 3.5Z" fill="#0F1D4E"/>
</svg>
