<svg width="16" height="16" viewBox="0 0 16 16" fill="none" xmlns="http://www.w3.org/2000/svg">
<path d="M6.27374 14.4404C9.83028 15.3934 13.4857 13.2829 14.4387 9.72636C15.3917 6.16982 13.2812 2.51437 9.72466 1.5614C6.16812 0.608426 2.51267 2.7189 1.5597 6.27544C0.606724 9.83198 2.7172 13.4874 6.27374 14.4404Z" stroke="#0F1D4E" stroke-linecap="round" stroke-linejoin="round"/>
<path d="M10.5355 6.264C10.2126 5.7047 9.51813 5.19009 8.80917 4.97942M8.80917 4.97942C7.96537 4.72848 7.10249 4.90931 6.82124 5.95895C6.30361 7.8908 10.1042 7.87388 9.58652 9.80573C9.29129 10.9075 8.22172 11.1282 7.24211 10.8278M8.80917 4.97942L9.1213 3.81451M5.55027 9.41441C5.81658 10.0793 6.50413 10.6017 7.24211 10.8278M7.24211 10.8278L6.87821 12.1859" stroke="#0F1D4E" stroke-linecap="round" stroke-linejoin="round"/>
</svg>
