<svg width="16" height="16" viewBox="0 0 16 16" fill="none" xmlns="http://www.w3.org/2000/svg">
<path d="M1.33398 12.0007C1.33398 10.974 1.33398 10.4607 1.56532 10.0833C1.69465 9.87198 1.87198 9.69465 2.08332 9.56532C2.45998 9.33398 2.97398 9.33398 4.00065 9.33398C5.02732 9.33398 5.54065 9.33398 5.91798 9.56532C6.12932 9.69465 6.30665 9.87198 6.43598 10.0833C6.66732 10.46 6.66732 10.974 6.66732 12.0007C6.66732 13.0273 6.66732 13.5407 6.43598 13.9187C6.30665 14.1293 6.12932 14.3067 5.91798 14.436C5.54132 14.6673 5.02732 14.6673 4.00065 14.6673C2.97398 14.6673 2.46065 14.6673 2.08332 14.436C1.87222 14.3069 1.6947 14.1296 1.56532 13.9187C1.33398 13.5407 1.33398 13.0273 1.33398 12.0007ZM9.33398 12.0007C9.33398 10.974 9.33398 10.4607 9.56532 10.0833C9.69465 9.87198 9.87198 9.69465 10.0833 9.56532C10.46 9.33398 10.974 9.33398 12.0007 9.33398C13.0273 9.33398 13.5407 9.33398 13.9187 9.56532C14.1293 9.69465 14.3067 9.87198 14.436 10.0833C14.6673 10.46 14.6673 10.974 14.6673 12.0007C14.6673 13.0273 14.6673 13.5407 14.436 13.9187C14.3066 14.1294 14.1294 14.3066 13.9187 14.436C13.5407 14.6673 13.0273 14.6673 12.0007 14.6673C10.974 14.6673 10.4607 14.6673 10.0833 14.436C9.87222 14.3069 9.6947 14.1296 9.56532 13.9187C9.33398 13.5407 9.33398 13.0273 9.33398 12.0007ZM1.33398 4.00065C1.33398 2.97398 1.33398 2.46065 1.56532 2.08332C1.69465 1.87198 1.87198 1.69465 2.08332 1.56532C2.45998 1.33398 2.97398 1.33398 4.00065 1.33398C5.02732 1.33398 5.54065 1.33398 5.91798 1.56532C6.12932 1.69465 6.30665 1.87198 6.43598 2.08332C6.66732 2.45998 6.66732 2.97398 6.66732 4.00065C6.66732 5.02732 6.66732 5.54065 6.43598 5.91798C6.30665 6.12932 6.12932 6.30665 5.91798 6.43598C5.54132 6.66732 5.02732 6.66732 4.00065 6.66732C2.97398 6.66732 2.46065 6.66732 2.08332 6.43598C1.87214 6.30668 1.69462 6.12916 1.56532 5.91798C1.33398 5.54132 1.33398 5.02732 1.33398 4.00065ZM9.33398 4.00065C9.33398 2.97398 9.33398 2.46065 9.56532 2.08332C9.69465 1.87198 9.87198 1.69465 10.0833 1.56532C10.46 1.33398 10.974 1.33398 12.0007 1.33398C13.0273 1.33398 13.5407 1.33398 13.9187 1.56532C14.1293 1.69465 14.3067 1.87198 14.436 2.08332C14.6673 2.45998 14.6673 2.97398 14.6673 4.00065C14.6673 5.02732 14.6673 5.54065 14.436 5.91798C14.3067 6.12932 14.1293 6.30665 13.9187 6.43598C13.5407 6.66732 13.0273 6.66732 12.0007 6.66732C10.974 6.66732 10.4607 6.66732 10.0833 6.43598C9.87214 6.30668 9.69462 6.12916 9.56532 5.91798C9.33398 5.54132 9.33398 5.02732 9.33398 4.00065Z" stroke="#0F1D4E" stroke-width="1.5" stroke-linecap="round" stroke-linejoin="round"/>
</svg>
