<svg width="18" height="16" viewBox="0 0 18 16" fill="none" xmlns="http://www.w3.org/2000/svg">
<path d="M15.6706 8.68382L9.0074 15.3333L2.34419 8.68382C1.90469 8.25289 1.5585 7.73493 1.32743 7.16256C1.09635 6.59019 0.985392 5.97581 1.00154 5.35811C1.01769 4.74041 1.16059 4.13277 1.42125 3.57346C1.68191 3.01414 2.05468 2.51526 2.51609 2.10824C2.97749 1.70122 3.51754 1.39487 4.10222 1.20848C4.6869 1.02209 5.30355 0.959708 5.91333 1.02525C6.52312 1.0908 7.11283 1.28285 7.64533 1.58932C8.17783 1.89579 8.64159 2.31003 9.0074 2.80597C9.3748 2.31364 9.83909 1.90301 10.3712 1.59979C10.9034 1.29657 11.4919 1.1073 12.1 1.0438C12.708 0.980304 13.3226 1.04396 13.9051 1.23078C14.4876 1.4176 15.0256 1.72357 15.4854 2.12953C15.9452 2.53549 16.3169 3.03271 16.5772 3.59007C16.8375 4.14742 16.9808 4.75292 16.9982 5.36865C17.0156 5.98439 16.9067 6.59712 16.6782 7.16848C16.4498 7.73985 16.1068 8.25755 15.6706 8.68919" stroke="currentColor" stroke-linecap="round" stroke-linejoin="round"/>
<path d="M9.00798 2.80078L6.08239 5.74866C5.91583 5.91653 5.82227 6.14419 5.82227 6.38156C5.82227 6.61893 5.91583 6.84659 6.08239 7.01446L6.5648 7.50055C7.17782 8.11824 8.17286 8.11824 8.78587 7.50055L9.6743 6.60536C9.93669 6.34064 10.2483 6.13064 10.5913 5.98735C10.9343 5.84407 11.302 5.77032 11.6733 5.77032C12.0446 5.77032 12.4122 5.84407 12.7552 5.98735C13.0982 6.13064 13.4098 6.34064 13.6722 6.60536L15.6712 8.61955M9.4522 11.3051L11.2291 13.0955M11.6733 9.06715L13.4501 10.8575" stroke="currentColor" stroke-linecap="round" stroke-linejoin="round"/>
</svg>
