<svg width="16" height="16" viewBox="0 0 16 16" fill="none" xmlns="http://www.w3.org/2000/svg">
<path d="M8.00065 14.6673C11.6827 14.6673 14.6673 11.6827 14.6673 8.00065C14.6673 4.31865 11.6827 1.33398 8.00065 1.33398C4.31865 1.33398 1.33398 4.31865 1.33398 8.00065C1.33398 11.6827 4.31865 14.6673 8.00065 14.6673Z" stroke="#0F1D4E" stroke-linecap="round" stroke-linejoin="round"/>
<path d="M8.01823 5C8.15084 5 8.27801 5.05268 8.37178 5.14645C8.46555 5.24021 8.51823 5.36739 8.51823 5.5V8.16667C8.51823 8.29927 8.46555 8.42645 8.37178 8.52022C8.27801 8.61399 8.15084 8.66667 8.01823 8.66667C7.88562 8.66667 7.75844 8.61399 7.66468 8.52022C7.57091 8.42645 7.51823 8.29927 7.51823 8.16667V5.5C7.51823 5.36739 7.57091 5.24021 7.66468 5.14645C7.75844 5.05268 7.88562 5 8.01823 5ZM8.01823 10.8333C8.19504 10.8333 8.36461 10.7631 8.48963 10.6381C8.61466 10.513 8.6849 10.3435 8.6849 10.1667C8.6849 9.98986 8.61466 9.82029 8.48963 9.69526C8.36461 9.57024 8.19504 9.5 8.01823 9.5C7.84142 9.5 7.67185 9.57024 7.54682 9.69526C7.4218 9.82029 7.35156 9.98986 7.35156 10.1667C7.35156 10.3435 7.4218 10.513 7.54682 10.6381C7.67185 10.7631 7.84142 10.8333 8.01823 10.8333Z" fill="#0F1D4E"/>
</svg>
