<svg width="16" height="16" viewBox="0 0 16 16" fill="none" xmlns="http://www.w3.org/2000/svg">
<path d="M8.00065 14.6673C11.6827 14.6673 14.6673 11.6827 14.6673 8.00065C14.6673 4.31865 11.6827 1.33398 8.00065 1.33398C4.31865 1.33398 1.33398 4.31865 1.33398 8.00065C1.33398 11.6827 4.31865 14.6673 8.00065 14.6673Z" stroke="#0F1D4E" stroke-linecap="round" stroke-linejoin="round"/>
<path d="M10.8796 6.67873C10.9577 6.6032 11.001 6.50203 11 6.39702C10.999 6.29201 10.9539 6.19156 10.8744 6.1173C10.7949 6.04305 10.6873 6.00093 10.5748 6.00002C10.4624 5.9991 10.354 6.03947 10.2731 6.11243L7.14221 9.03608L5.72685 7.71443C5.64596 7.64147 5.53762 7.60111 5.42517 7.60202C5.31271 7.60293 5.20514 7.64505 5.12562 7.71931C5.0461 7.79356 5.00099 7.89401 5.00002 7.99902C4.99904 8.10403 5.04227 8.2052 5.1204 8.28074L6.83598 9.88274C6.91641 9.95782 7.02548 10 7.13921 10C7.25293 10 7.36201 9.95782 7.44244 9.88274L10.8736 6.67873H10.8796Z" fill="#0F1D4E"/>
</svg>
