<svg width="16" height="16" viewBox="0 0 16 16" fill="none" xmlns="http://www.w3.org/2000/svg">
<circle cx="8" cy="8" r="7.5" stroke="currentColor"/>
<path d="M11.7291 10.625C11.4091 10.625 11.1361 10.5513 10.91 10.4038C10.6862 10.254 10.5046 10.0533 10.3651 9.80196C10.2256 9.55058 10.1233 9.26898 10.0584 8.95717C9.99341 8.64537 9.96094 8.32631 9.96094 7.99999C9.96094 7.67127 9.99341 7.351 10.0584 7.03919C10.1233 6.72738 10.2256 6.44699 10.3651 6.19803C10.5046 5.94665 10.6862 5.74724 10.91 5.59979C11.1361 5.44993 11.4091 5.375 11.7291 5.375C12.0514 5.375 12.3245 5.44993 12.5482 5.59979C12.7743 5.74724 12.9572 5.94665 13.0967 6.19803C13.2362 6.44699 13.3384 6.72738 13.4034 7.03919C13.4683 7.351 13.5008 7.67127 13.5008 7.99999C13.5008 8.32631 13.4683 8.64537 13.4034 8.95717C13.3384 9.26898 13.2362 9.55058 13.0967 9.80196C12.9572 10.0533 12.7743 10.254 12.5482 10.4038C12.3245 10.5513 12.0514 10.625 11.7291 10.625ZM11.7291 9.98687C11.9215 9.98687 12.0851 9.92886 12.2198 9.81284C12.3545 9.69681 12.464 9.54333 12.5482 9.35237C12.6324 9.159 12.6937 8.94509 12.7322 8.71063C12.7707 8.47617 12.79 8.23929 12.79 7.99999C12.79 7.74136 12.7707 7.49361 12.7322 7.25673C12.6937 7.01743 12.6324 6.80473 12.5482 6.61861C12.464 6.43249 12.3545 6.28505 12.2198 6.17628C12.0851 6.06751 11.9215 6.01312 11.7291 6.01312C11.5366 6.01312 11.373 6.07113 11.2383 6.18715C11.1036 6.30076 10.9942 6.45424 10.91 6.64761C10.8282 6.83857 10.7668 7.05127 10.7259 7.28573C10.6874 7.5202 10.6682 7.75828 10.6682 7.99999C10.6682 8.25621 10.6874 8.50396 10.7259 8.74326C10.7668 8.98014 10.8282 9.19284 10.91 9.38138C10.9942 9.5675 11.1036 9.71494 11.2383 9.82371C11.373 9.93248 11.5366 9.98687 11.7291 9.98687Z" fill="currentColor"/>
<path d="M8.30221 10.6216C7.95339 10.6216 7.6563 10.5479 7.41092 10.4005C7.16795 10.2506 6.97069 10.05 6.81914 9.79861C6.66758 9.54723 6.55572 9.26564 6.48355 8.95383C6.41379 8.64202 6.37891 8.32417 6.37891 8.00027C6.37891 7.67396 6.41499 7.3549 6.48716 7.04309C6.56173 6.73129 6.676 6.4509 6.82996 6.20194C6.98392 5.95056 7.18239 5.75114 7.42536 5.6037C7.67073 5.45384 7.96301 5.37891 8.30221 5.37891C8.57164 5.37891 8.79897 5.42483 8.9842 5.51668C9.17184 5.60612 9.3258 5.72335 9.44609 5.86837C9.56637 6.01098 9.66139 6.16085 9.73115 6.31796L9.12493 6.63339C9.03352 6.45694 8.92527 6.31071 8.80017 6.19468C8.67749 6.07625 8.5115 6.01703 8.30221 6.01703C8.07848 6.01703 7.88844 6.07625 7.73207 6.19468C7.57811 6.31312 7.45302 6.47024 7.3568 6.66602C7.26298 6.86181 7.19442 7.07693 7.15111 7.3114C7.10781 7.54344 7.08616 7.77307 7.08616 8.00027C7.08616 8.24682 7.11022 8.48853 7.15833 8.72541C7.20644 8.95987 7.27861 9.17258 7.37484 9.36353C7.47347 9.55207 7.59976 9.70314 7.75372 9.81674C7.90768 9.92793 8.09051 9.98352 8.30221 9.98352C8.51871 9.98352 8.69433 9.9231 8.82904 9.80224C8.96376 9.68138 9.07562 9.52548 9.16463 9.33453L9.77806 9.5702C9.70108 9.75873 9.59644 9.93276 9.46413 10.0923C9.33422 10.2518 9.17305 10.3799 8.9806 10.4766C8.78815 10.5733 8.56202 10.6216 8.30221 10.6216Z" fill="currentColor"/>
<path d="M3 10.5388V5.46289H6.02749V6.11551H3.682V7.59117H5.2625V8.24016H3.682V9.88622H6.18265V10.5388H3Z" fill="currentColor"/>
</svg>
