<svg width="16" height="16" viewBox="0 0 16 16" fill="none" xmlns="http://www.w3.org/2000/svg">
<path fill-rule="evenodd" clip-rule="evenodd" d="M2.68267 6L2.66667 5.954C2.30667 4.92267 2 3.51333 2 2.66667C2 2.3 2.3 2 2.66667 2H4.66667C5.02029 2 5.35943 2.14048 5.60948 2.39052C5.85952 2.64057 6 2.97971 6 3.33333V4.66667C6 5.02029 5.85952 5.35943 5.60948 5.60948C5.35943 5.85952 5.02029 6 4.66667 6H4.10867C4.64678 7.32606 5.44544 8.5307 6.45737 9.54263C7.4693 10.5546 8.67394 11.3532 10 11.8913V11.3333C10 10.9797 10.1405 10.6406 10.3905 10.3905C10.6406 10.1405 10.9797 10 11.3333 10H12.6667C13.0203 10 13.3594 10.1405 13.6095 10.3905C13.8595 10.6406 14 10.9797 14 11.3333V13.3333C14 13.6333 13.6333 14 13.3333 14C12.1833 14 11.04 13.696 10 13.3333C6.59067 12.112 3.888 9.40933 2.68267 6Z" fill="currentColor"/>
</svg>
